Coordinates
version=1
nRows=29
nColumns=24
inDegrees=yes

Units are S.I. units (second, meters, Newtons, ...)
Angles are in degrees.

endheader
time	pelvis_tilt	pelvis_list	pelvis_rotation	pelvis_tx	pelvis_ty	pelvis_tz	hip_flexion_r	hip_adduction_r	hip_rotation_r	knee_angle_r	ankle_angle_r	subtalar_angle_r	mtp_angle_r	hip_flexion_l	hip_adduction_l	hip_rotation_l	knee_angle_l	ankle_angle_l	subtalar_angle_l	mtp_angle_l	lumbar_extension	lumbar_bending	lumbar_rotation
      0.01000000	     62.14623381	     -0.62616781	     -1.73531806	      0.64932959	      1.01516504	     -0.20966323	      6.25011167	     -0.50267884	      8.12559760	    -18.42548815	    -27.36024892	     23.89882711	     65.11281276	     -6.23483520	    -11.45375990	      0.78282063	    -53.60161591	    -12.97817487	     31.62117399	     29.28211481	      0.00000000	      0.00000000	      0.00000000
      0.02000000	     62.13902659	     -0.62724209	     -1.75014153	      0.64934442	      1.01515014	     -0.20966170	      6.26548782	     -0.50474758	      8.12754797	    -18.43076083	    -27.36049536	     23.90431241	     65.11598509	     -6.22948996	    -11.44675191	      0.78601421	    -53.60495647	    -12.98038300	     31.62635080	     29.27963153	      0.00000000	      0.00000000	      0.00000000
      0.03000000	     62.13062296	     -0.62723858	     -1.75562152	      0.64935169	      1.01514394	     -0.20965629	      6.27923336	     -0.50791233	      8.12886918	    -18.43492878	    -27.36109040	     23.91046161	     65.11911014	     -6.22070632	    -11.44412867	      0.78954876	    -53.60647586	    -12.98029299	     31.63012170	     29.27744105	      0.00000000	      0.00000000	      0.00000000
      0.04000000	     62.12140449	     -0.62707590	     -1.75473450	      0.64935314	      1.01514316	     -0.20965165	      6.29175365	     -0.51173287	      8.12947876	    -18.43824527	    -27.36201238	     23.91712518	     65.12219400	     -6.20927818	    -11.44437366	      0.79332269	    -53.60745445	    -12.97850211	     31.63265079	     29.27561541	      0.00000000	      0.00000000	      0.00000000
      0.05000000	     62.11199998	     -0.62734227	     -1.75072366	      0.64935311	      1.01514382	     -0.20964989	      6.30342876	     -0.51564985	      8.12936800	    -18.44083889	    -27.36317472	     23.92401380	     65.12523373	     -6.19623249	    -11.44602239	      0.79713323	    -53.60912964	    -12.97572585	     31.63414765	     29.27423702	      0.00000000	      0.00000000	      0.00000000
      0.06000000	     62.10301881	     -0.62804054	     -1.74617831	      0.64935639	      1.01514157	     -0.20964974	      6.31446178	     -0.51916072	      8.12864471	    -18.44262947	    -27.36440697	     23.93070842	     65.12821885	     -6.18263481	    -11.44809191	      0.80067831	    -53.61220949	    -12.97263514	     31.63484985	     29.27336424	      0.00000000	      0.00000000	      0.00000000
      0.07000000	     62.09476222	     -0.62886360	     -1.74264190	      0.64936357	      1.01513537	     -0.20964843	      6.32487690	     -0.52201813	      8.12751463	    -18.44338608	    -27.36546540	     23.93670319	     65.13113477	     -6.16942036	    -11.45007424	      0.80357547	    -53.61668746	    -12.96975100	     31.63501857	     29.27300838	      0.00000000	      0.00000000	      0.00000000
      0.08000000	     62.08718506	     -0.62957592	     -1.74067749	      0.64937245	      1.01513000	     -0.20964438	      6.33470747	     -0.52434575	      8.12625064	    -18.44288550	    -27.36607695	     23.94147112	     65.13396206	     -6.15725051	    -11.45172387	      0.80543188	    -53.62193195	    -12.96739530	     31.63493221	     29.27312874	      0.00000000	      0.00000000	      0.00000000
      0.09000000	     62.08003321	     -0.63010609	     -1.74020218	      0.64938211	      1.01512916	     -0.20963885	      6.34420297	     -0.52656278	      8.12516886	    -18.44113728	    -27.36601306	     23.94454323	     65.13666760	     -6.14644734	    -11.45290182	      0.80596846	    -53.62696133	    -12.96569232	     31.63487221	     29.27364243	      0.00000000	      0.00000000	      0.00000000
      0.10000000	     62.07298978	     -0.63040788	     -1.74087388	      0.64939188	      1.01512873	     -0.20963492	      6.35386925	     -0.52913175	      8.12458710	    -18.43858293	    -27.36517464	     23.94558979	     65.13918687	     -6.13701265	    -11.45352547	      0.80511625	    -53.63080411	    -12.96460688	     31.63510382	     29.27444179	      0.00000000	      0.00000000	      0.00000000
      0.11000000	     62.06582202	     -0.63038847	     -1.74237207	      0.64940022	      1.01512290	     -0.20963400	      6.36433314	     -0.53227714	      8.12474749	    -18.43610679	    -27.36366134	     23.94448988	     65.14140270	     -6.12867775	    -11.45353710	      0.80302005	    -53.63283332	    -12.96399938	     31.63585566	     29.27541292	      0.00000000	      0.00000000	      0.00000000
      0.12000000	     62.05849414	     -0.63000469	     -1.74452210	      0.64940575	      1.01511297	     -0.20963355	      6.37612989	     -0.53584375	      8.12572918	    -18.43477748	    -27.36179609	     23.94137138	     65.14313720	     -6.12099950	    -11.45289478	      0.79998096	    -53.63297282	    -12.96367682	     31.63730107	     29.27645024	      0.00000000	      0.00000000	      0.00000000
      0.13000000	     62.05113841	     -0.62936273	     -1.74722507	      0.64940753	      1.01510496	     -0.20963050	      6.38949659	     -0.53934849	      8.12740923	    -18.43544363	    -27.36008200	     23.93660195	     65.14417644	     -6.11354780	    -11.45164344	      0.79640064	    -53.63171900	    -12.96342769	     31.63954389	     29.27746490	      0.00000000	      0.00000000	      0.00000000
      0.14000000	     62.04393086	     -0.62868082	     -1.75027347	      0.64940569	      1.01510134	     -0.20962601	      6.40421746	     -0.54215884	      8.12950203	    -18.43841030	    -27.35909010	     23.93072323	     65.14433251	     -6.10608298	    -11.45001380	      0.79274146	    -53.62997588	    -12.96304180	     31.64260940	     29.27838859	      0.00000000	      0.00000000	      0.00000000
      0.15000000	     62.03705967	     -0.62818028	     -1.75326204	      0.64940171	      1.01509786	     -0.20962329	      6.41961414	     -0.54372320	      8.13165982	    -18.44332593	    -27.35930627	     23.92434085	     65.14352613	     -6.09858348	    -11.44844837	      0.78948357	    -53.62876843	    -12.96232791	     31.64644173	     29.27917564	      0.00000000	      0.00000000	      0.00000000
      0.16000000	     62.03079275	     -0.62805700	     -1.75566346	      0.64939769	      1.01509000	     -0.20962242	      6.43474252	     -0.54376746	      8.13358944	    -18.44928487	    -27.36099183	     23.91800472	     65.14186170	     -6.09116002	    -11.44750865	      0.78705998	    -53.62894951	    -12.96114331	     31.65091369	     29.27980334	      0.00000000	      0.00000000	      0.00000000
      0.17000000	     62.02544213	     -0.62853414	     -1.75700043	      0.64939556	      1.01508041	     -0.20962024	      6.44866951	     -0.54235961	      8.13512300	    -18.45509381	    -27.36411345	     23.91211978	     65.13966565	     -6.08397443	    -11.44769310	      0.78578795	    -53.63098866	    -12.95943499	     31.65585262	     29.28026838	      0.00000000	      0.00000000	      0.00000000
      0.18000000	     62.02118627	     -0.62986142	     -1.75702975	      0.64939520	      1.01507487	     -0.20961501	      6.46068678	     -0.53984124	      8.13619995	    -18.45958223	    -27.36836579	     23.90690642	     65.13746873	     -6.07720641	    -11.44926557	      0.78583961	    -53.63488081	    -12.95727375	     31.66107169	     29.28058034	      0.00000000	      0.00000000	      0.00000000
      0.19000000	     62.01797735	     -0.63220141	     -1.75584308	      0.64939481	      1.01507432	     -0.20960987	      6.47048671	     -0.53670637	      8.13678384	    -18.46180342	    -27.37327239	     23.90240898	     65.13592979	     -6.07103711	    -11.45216489	      0.78723091	    -53.64019205	    -12.95485325	     31.66638740	     29.28075804	      0.00000000	      0.00000000	      0.00000000
      0.20000000	     62.01564201	     -0.63544888	     -1.75382584	      0.64939432	      1.01507576	     -0.20960957	      6.47829814	     -0.53347212	      8.13678709	    -18.46108439	    -27.37832660	     23.89853946	     65.13572055	     -6.06559897	    -11.45599652	      0.78977013	    -53.64621478	    -12.95243890	     31.67161417	     29.28083132	      0.00000000	      0.00000000	      0.00000000
      0.21000000	     62.01397398	     -0.63909504	     -1.75151801	      0.64939521	      1.01507767	     -0.20961484	      6.48485053	     -0.53056379	      8.13607261	    -18.45703361	    -27.38312583	     23.89513925	     65.13740248	     -6.06090126	    -11.46010702	      0.79300041	    -53.65215703	    -12.95028399	     31.67654962	     29.28084460	      0.00000000	      0.00000000	      0.00000000
      0.22000000	     62.01262418	     -0.64230843	     -1.74948137	      0.64939719	      1.01507994	     -0.20962190	      6.49112949	     -0.52826773	      8.13455292	    -18.44961186	    -27.38746786	     23.89204404	     65.14131964	     -6.05680564	    -11.46373746	      0.79625393	    -53.65729819	    -12.94855706	     31.68097323	     29.28085690	      0.00000000	      0.00000000	      0.00000000
      0.23000000	     62.01094941	     -0.64428587	     -1.74823213	      0.64939861	      1.01507966	     -0.20962564	      6.49810059	     -0.52675764	      8.13234457	    -18.43921737	    -27.39139378	     23.88913839	     65.14751821	     -6.05303809	    -11.46621729	      0.79885629	    -53.66107690	    -12.94731449	     31.68466800	     29.28093784	      0.00000000	      0.00000000	      0.00000000
      0.24000000	     62.00809741	     -0.64465522	     -1.74819858	      0.64939934	      1.01507364	     -0.20962383	      6.50659572	     -0.52612063	      8.12988827	    -18.42664729	    -27.39516360	     23.88638362	     65.15570287	     -6.04917161	    -11.46714890	      0.80036633	    -53.66313421	    -12.94651647	     31.68745564	     29.28116506	      0.00000000	      0.00000000	      0.00000000
      0.25000000	     62.00327588	     -0.64361692	     -1.74962844	      0.64940024	      1.01506459	     -0.20961872	      6.51733105	     -0.52633144	      8.12794838	    -18.41289917	    -27.39916924	     23.88381356	     65.16524113	     -6.04464358	    -11.46651343	      0.80068939	    -53.66338015	    -12.94606137	     31.68922910	     29.28162878	      0.00000000	      0.00000000	      0.00000000
      0.26000000	     61.99600890	     -0.64170166	     -1.75247665	      0.64940318	      1.01505862	     -0.20961393	      6.53090285	     -0.52719393	      8.12746480	    -18.39889348	    -27.40381073	     23.88150644	     65.17522064	     -6.03887978	    -11.46466630	      0.80001386	    -53.66207874	    -12.94582075	     31.68997025	     29.28244262	      0.00000000	      0.00000000	      0.00000000
      0.27000000	     61.98632938	     -0.63939236	     -1.75638055	      0.64941158	      1.01505806	     -0.20961151	      6.54769393	     -0.52832743	      8.12930589	    -18.38521727	    -27.40936423	     23.87954445	     65.18455572	     -6.03144279	    -11.46224102	      0.79865507	    -53.65984666	    -12.94566825	     31.68974627	     29.28375526	      0.00000000	      0.00000000	      0.00000000
      0.28000000	     61.97482459	     -0.63698831	     -1.76074894	      0.64942519	      1.01505979	     -0.20961067	      6.56767941	     -0.52926711	      8.13401193	    -18.37200148	    -27.41587364	     23.87797264	     65.19212971	     -6.02212413	    -11.45994608	      0.79689443	    -53.65751435	    -12.94550050	     31.68868397	     29.28575813	      0.00000000	      0.00000000	      0.00000000
      0.29000000	     61.96242738	     -0.63468441	     -1.76493190	      0.64943729	      1.01505928	     -0.20960876	      6.59018713	     -0.52962610	      8.14160862	    -18.35899914	    -27.42309893	     23.87677089	     65.19695194	     -6.01102665	    -11.45831752	      0.79488275	    -53.65591342	    -12.94525555	     31.68692545	     29.28868659	      0.00000000	      0.00000000	      0.00000000
